<svg xmlns="http://www.w3.org/2000/svg" width="10.649" height="6.29" viewBox="0 0 10.649 6.29">
  <path id="Path_15543" data-name="Path 15543" d="M2.121.106a.624.624,0,0,1-.189.135.47.47,0,0,1-.149.022q-.189,0-.338-.3A1.589,1.589,0,0,1,1.3-.748a.782.782,0,0,1,.3-.629L6.139-5.039,1.594-8.746a.782.782,0,0,1-.3-.629,1.589,1.589,0,0,1,.149-.708q.149-.3.338-.3a.47.47,0,0,1,.149.022.624.624,0,0,1,.189.135l5.14,4.246a.835.835,0,0,1,.264.393,1.954,1.954,0,0,1,.061.528,2.083,2.083,0,0,1-.061.539.829.829,0,0,1-.264.4Z" transform="translate(0.264 -1.296) rotate(90)" fill="#b5b2b2"/>
</svg>
