<svg xmlns="http://www.w3.org/2000/svg" width="51.126" height="57.954" viewBox="0 0 51.126 57.954">
  <g id="Group_16621" data-name="Group 16621" transform="translate(0.999 1.012)">
    <path id="Path_865" data-name="Path 865" d="M2952.359,3033.958a44.927,44.927,0,0,1,5.151.871c3.793,1.086,5.69,3.943,5.464,7.877-.043.745-.07,1.494-.067,2.241,0,1.015-.116,1.976,1.24,2.487.551.208,1,1.328,1.061,2.067a30.833,30.833,0,0,1-.007,5.724,8.9,8.9,0,0,1-1.312,2.675,4.71,4.71,0,0,0-.6,1.241,17.292,17.292,0,0,1-5.363,10.424,10.158,10.158,0,0,1-13.838.264,17.778,17.778,0,0,1-6.164-10.673,2.078,2.078,0,0,0-.92-1.226,3.7,3.7,0,0,1-2.092-3.54c.036-1.162.052-2.329-.005-3.49a3.7,3.7,0,0,1,1.542-3.221,2.411,2.411,0,0,0,.764-1.5c.135-1.4-.031-2.837.167-4.225a8.053,8.053,0,0,1,7.2-6.84C2947.171,3034.8,2949.744,3034.354,2952.359,3033.958Zm8.266,10.689h.056c0-.788,0-1.576,0-2.364a4.874,4.874,0,0,0-3.593-5.2,11.577,11.577,0,0,0-2.423-.526c-3.394-.434-6.682.346-10,.884a5.68,5.68,0,0,0-5.029,5.323c-.089,1.531.007,3.074-.085,4.6-.031.52-.258,1.339-.608,1.475-1.729.673-1.9,1.986-1.762,3.531a8.177,8.177,0,0,1,0,1.618,1.645,1.645,0,0,0,1.509,2.031c1.073.167,1.408.727,1.482,1.764a14.233,14.233,0,0,0,5.118,10.037c3.929,3.4,8.711,2.965,12.1-.991a15.464,15.464,0,0,0,3.693-9.059,2.058,2.058,0,0,1,.854-1.535,1.365,1.365,0,0,0,1-1.488c0-1.536-.008-3.072,0-4.608.005-.66-.121-1.132-.948-1.1-1.019.034-1.374-.592-1.366-1.521C2960.631,3046.558,2960.625,3045.6,2960.625,3044.647Z" transform="translate(-2926.695 -3033.958)" fill="#ed1c24" stroke="#ed1c24" stroke-width="2"/>
    <path id="Path_866" data-name="Path 866" d="M2983.974,3212.866h-1.87l.2-.248A11.439,11.439,0,0,0,2980.8,3211c-2.277-1.669-3.989-5.937-3.388-8.639a5.8,5.8,0,0,1,11.384,2.2c-.5,2.817-1.558,5.311-4.174,6.885C2984.3,3211.644,2984.232,3212.269,2983.974,3212.866Zm-4.461-9.1a8.474,8.474,0,0,0,2.2,4.955,1.7,1.7,0,0,0,2.794-.078,7.989,7.989,0,0,0,2.1-4.926,3.526,3.526,0,0,0-3.47-3.619A3.627,3.627,0,0,0,2979.513,3203.763Z" transform="translate(-2958.511 -3156.924)" fill="#ed1c24" stroke="#ed1c24" stroke-width="2"/>
    <path id="Path_867" data-name="Path 867" d="M3044.708,3197.842a12.968,12.968,0,0,1,12.227,12.332c.013.848-.188,1.546-1.148,1.589-1.006.046-1.156-.712-1.226-1.521-.463-5.36-3.624-8.929-8.824-9.977a6.263,6.263,0,0,0-1.111-.106c-.856-.016-1.625-.165-1.666-1.229C3042.932,3198.164,3043.537,3197.813,3044.708,3197.842Z" transform="translate(-3007.808 -3156.977)" fill="#ed1c24" stroke="#ed1c24" stroke-width="2"/>
    <path id="Path_868" data-name="Path 868" d="M2902,3210.052a12.951,12.951,0,0,1,12.072-12.221l.125,0c.821-.024,1.708-.029,1.752,1.071.042,1.061-.776,1.208-1.634,1.247a9.907,9.907,0,0,0-5.458,1.857,10.259,10.259,0,0,0-4.486,7.957c-.006.083-.011.166-.014.248-.032.806-.192,1.583-1.2,1.54C2902.114,3211.7,2901.924,3210.933,2902,3210.052Z" transform="translate(-2901.984 -3156.963)" fill="#ed1c24" stroke="#ed1c24" stroke-width="2"/>
  </g>
</svg>
