<svg xmlns="http://www.w3.org/2000/svg" width="17.923" height="17.806" viewBox="0 0 17.923 17.806">
  <g id="Group_16633" data-name="Group 16633" transform="translate(0.503 0.607)">
    <path id="Path_890" data-name="Path 890" d="M955.677,2972.018l-8.78,8.784-3.44-3.435,8.787-8.783Z" transform="translate(-941.849 -2965.703)" fill="none" stroke="#ed1c24" stroke-width="1"/>
    <path id="Path_891" data-name="Path 891" d="M991.49,2960.729l-3.481-3.482c.154-.148.318-.3.479-.464.353-.348.7-.7,1.058-1.043a1.51,1.51,0,0,1,2.062,0c.557.532,1.111,1.07,1.634,1.635a1.13,1.13,0,0,1-.023,1.629c-.552.584-1.133,1.14-1.7,1.708A.1.1,0,0,1,991.49,2960.729Z" transform="translate(-976.717 -2955.332)" fill="none" stroke="#ed1c24" stroke-width="1"/>
    <path id="Path_892" data-name="Path 892" d="M936.943,3011.691l3.5,3.5-.589.146q-1.607.39-3.213.78c-.413.1-.651-.128-.56-.542Q936.511,3013.631,936.943,3011.691Z" transform="translate(-936.062 -2999.44)" fill="none" stroke="#ed1c24" stroke-width="1"/>
  </g>
</svg>
