<svg id="Group_1" data-name="Group 1" xmlns="http://www.w3.org/2000/svg" width="92.707" height="30.434" viewBox="0 0 92.707 30.434">
  <path id="Path_1" data-name="Path 1" d="M230.054,62.184a1.275,1.275,0,0,1-1.23-1.321V46.2l-3.324.5V60.772a3.617,3.617,0,0,0,3.552,3.689h1.867V62.184Z" transform="translate(-138.212 -38.684)" fill="#ed1c24"/>
  <path id="Path_2" data-name="Path 2" d="M151,69.626h3.324V55.6L151,56.146Z" transform="translate(-97.639 -43.803)" fill="#ed1c24"/>
  <path id="Path_3" data-name="Path 3" d="M162.9,57.431V69h3.324V58.751c0-1.73,3.825-1.366,3.825-1.366l1.184-2.6A7.786,7.786,0,0,0,162.9,57.431Z" transform="translate(-104.12 -43.174)" fill="#ed1c24"/>
  <path id="Path_4" data-name="Path 4" d="M186.924,60.909V52.8h2v-2.55h-2V46.2l-3.324.5V60.772a3.617,3.617,0,0,0,3.552,3.689h1.867V62.184h-.82A1.273,1.273,0,0,1,186.924,60.909Z" transform="translate(-115.393 -38.684)" fill="#ed1c24"/>
  <path id="Path_5" data-name="Path 5" d="M152.149,43.5a2.049,2.049,0,1,0,2.049,2.049A2.013,2.013,0,0,0,152.149,43.5Z" transform="translate(-97.149 -37.213)" fill="#ed1c24"/>
  <path id="Path_6" data-name="Path 6" d="M202.71,66.486c-2.186-.865-2.049-4.144-2.049-4.144h7.969c0-4.144-1-7.742-5.009-7.742s-6.421,2.96-6.421,7.1,2.55,7.377,6.558,7.377a9.573,9.573,0,0,0,4.964-1.412l-1.138-1.958C207.628,65.666,204.9,67.305,202.71,66.486Zm.455-9.335c1.913,0,2.277,2.687,2.277,2.687h-4.554C200.843,59.837,201.253,57.15,203.166,57.15Z" transform="translate(-122.8 -43.258)" fill="#ed1c24"/>
  <path id="Path_7" data-name="Path 7" d="M128.492,54.8a16.933,16.933,0,0,0-2.823.273,9.084,9.084,0,0,0-2.687,1.184l1.047,2.186a5.5,5.5,0,0,1,3.506-1.275c2.823,0,2.414,2.823,2.414,2.823-5.51-1.138-8.243,1.685-8.151,4.645a4.065,4.065,0,0,0,1.73,3.689c4.827,3.188,9.518-1.457,9.518-1.457V59.126A4.466,4.466,0,0,0,128.492,54.8Zm1.457,11.612s-2.186,1-3.6.182a2.3,2.3,0,0,1,.091-3.825,6.181,6.181,0,0,1,3.506-.273Z" transform="translate(-81.733 -43.367)" fill="#ed1c24"/>
  <path id="Path_8" data-name="Path 8" d="M6.3,6.4C-3.089,14.914.3,17.761,2.547,18.842s5.238-.4,9-3.331C15.271,12.58,23.953,6.915,26,9.733s2.078,8.4-6.69,15.77-10.589,3.046-6.263-.313c4.327-3.387,3.53-5.409,1.48-5.693-2.135-.313-3.985.2-5.921,3.7,0,0-2.932,5.636.826,7.088,2.59,1,10.3-2.106,15.941-7.771,4.156-4.185,7.2-9.195,5.921-15.884C29.675-2.137,15.7-2.109,6.3,6.4Z" transform="translate(-0.059 -0.037)" fill="#ed1c24"/>
</svg>
