<svg xmlns="http://www.w3.org/2000/svg" width="24.022" height="23.999" viewBox="0 0 24.022 23.999">
  <g id="Group_16665" data-name="Group 16665" transform="translate(-553.156 -3402.779)">
    <path id="Path_11712" data-name="Path 11712" d="M577.179,3429.625a12.043,12.043,0,0,1-11.383,12.5,11.822,11.822,0,0,1-12.451-9.986,11.627,11.627,0,0,1,3.108-10.231c.631-.687,1.31-.772,1.862-.269s.527,1.176-.091,1.868a9.644,9.644,0,0,0,6.334,16.255,9.624,9.624,0,0,0,7.939-15.84c-.038-.043-.075-.086-.113-.128-.867-.957-.966-1.633-.32-2.187.614-.527,1.311-.318,2.147.648A11.725,11.725,0,0,1,577.179,3429.625Z" transform="translate(0 -15.369)" fill="#ed1c24"/>
    <path id="Path_11713" data-name="Path 11713" d="M618.974,3408.776c0,1.536.007,3.072,0,4.608,0,.881-.427,1.364-1.166,1.363s-1.165-.49-1.166-1.371q-.006-4.608.01-9.216c0-.864.46-1.386,1.161-1.382s1.151.531,1.157,1.39C618.98,3405.7,618.973,3407.24,618.974,3408.776Z" transform="translate(-52.638)" fill="#ed1c24"/>
  </g>
</svg>
