<svg xmlns="http://www.w3.org/2000/svg" width="21.547" height="21.587" viewBox="0 0 21.547 21.587">
  <g id="Group_16635" data-name="Group 16635" transform="translate(0.15 0.15)">
    <path id="Path_897" data-name="Path 897" d="M497,2929.375l1.292-.114a9.364,9.364,0,0,0,3.265,6.113,9.176,9.176,0,0,0,4.751,2.129,9.293,9.293,0,0,0,9.008-3.994l-.978-.762,3.135-.749v3.219l-1-.766a28.064,28.064,0,0,1-2.295,2.181,10.649,10.649,0,0,1-16.981-6.259c-.057-.271-.129-.539-.194-.808Z" transform="translate(-497 -2917.666)" fill="#ed1c24" stroke="#fff" stroke-width="0.3"/>
    <path id="Path_898" data-name="Path 898" d="M521.9,2877.015h-1.292a9.342,9.342,0,0,0-7.818-8.5,9.123,9.123,0,0,0-9.007,3.727l.917.822-3.208.645.238-3.226,1.036.811c.287-.321.555-.641.845-.939a10.225,10.225,0,0,1,6.363-3.159,1.81,1.81,0,0,0,.312-.092h1.794a2.365,2.365,0,0,0,.359.1,10.674,10.674,0,0,1,9.06,7.66c.171.615.27,1.25.4,1.876Z" transform="translate(-500.655 -2867.1)" fill="#ed1c24" stroke="#fff" stroke-width="0.3"/>
    <path id="Path_899" data-name="Path 899" d="M536.112,2909.125v1.212l-.636.077v1.258H534.2c0-.352-.01-.679,0-1,.011-.276-.157-.341-.359-.281a1.343,1.343,0,0,0-.377.275c-.008.006,0,.03,0,.046-.031.321.042.83-.118.919-.275.152-.7.042-1.13.042,0-.3-.011-.609,0-.915.013-.285-.1-.4-.387-.384-.326.017-.653,0-1,0a2.708,2.708,0,0,1-1.089,2.151,2.6,2.6,0,0,1-4.136-1.741,9.291,9.291,0,0,1-.016-1.976,2.546,2.546,0,0,1,2.565-2.338,2.573,2.573,0,0,1,2.631,2.323c.036.32.185.336.43.336,1.447-.006,2.894,0,4.342,0Zm-9.314.552.036,0c0,.251-.013.5,0,.753a1.393,1.393,0,0,0,1.327,1.34,1.312,1.312,0,0,0,1.346-1.188,8.077,8.077,0,0,0-.023-1.777,1.255,1.255,0,0,0-1.241-1.083,1.328,1.328,0,0,0-1.322.932A6.535,6.535,0,0,0,526.8,2909.677Z" transform="translate(-520.225 -2899.125)" fill="#ed1c24" stroke="#fff" stroke-width="0.3"/>
  </g>
</svg>
