<svg xmlns="http://www.w3.org/2000/svg" width="34.4" height="30.43" viewBox="0 0 34.4 30.43"><defs><style>.a{fill:#ed1c24;}</style></defs><circle class="a" cx="2.646" cy="2.646" r="2.646" transform="translate(29.107 25.138)"/><path class="a" d="M18.292,5.646c0,1.462-1.184,1.323-2.646,1.323S13,7.108,13,5.646a2.646,2.646,0,1,1,5.292,0Z" transform="translate(1.554 -3)"/><circle class="a" cx="2.646" cy="2.646" r="2.646" transform="translate(0 25.138)"/><path class="a" d="M21.532,4.278,19.1,4l-2.429.278L2.3,29.069l2.44,4.038H33.466l2.44-4.038Zm-.826,9.46L20.442,22.3H17.764L17.5,13.738Zm-1.6,14.327c-1.1,0-1.75-.583-1.75-1.564a1.532,1.532,0,0,1,1.75-1.582,1.581,1.581,0,1,1,0,3.146Z" transform="translate(-1.903 -2.677)"/></svg>