<svg xmlns="http://www.w3.org/2000/svg" width="31.889" height="36.311" viewBox="0 0 31.889 36.311">
  <g id="Group_16621" data-name="Group 16621" transform="translate(0)">
    <path id="Path_865" data-name="Path 865" d="M2946.233,3033.958a29.171,29.171,0,0,1,3.343.565,4.635,4.635,0,0,1,3.546,5.113c-.028.484-.045.969-.043,1.455,0,.658-.075,1.282.8,1.615.358.135.651.862.689,1.342a20.049,20.049,0,0,1,0,3.715,5.771,5.771,0,0,1-.852,1.737,3.062,3.062,0,0,0-.387.806,11.225,11.225,0,0,1-3.481,6.766,6.593,6.593,0,0,1-8.982.171,11.536,11.536,0,0,1-4-6.927,1.35,1.35,0,0,0-.6-.8,2.4,2.4,0,0,1-1.358-2.3c.023-.754.034-1.512,0-2.265a2.4,2.4,0,0,1,1-2.091,1.565,1.565,0,0,0,.5-.972c.087-.909-.021-1.842.108-2.742a5.227,5.227,0,0,1,4.673-4.439C2942.866,3034.507,2944.536,3034.214,2946.233,3033.958Zm5.365,6.938h.036c0-.511,0-1.023,0-1.535a3.164,3.164,0,0,0-2.332-3.377,7.512,7.512,0,0,0-1.573-.341,22.481,22.481,0,0,0-6.489.573,3.686,3.686,0,0,0-3.264,3.455c-.058.994,0,2-.055,2.989-.02.337-.167.869-.395.957-1.122.437-1.233,1.289-1.144,2.292a5.311,5.311,0,0,1,0,1.05,1.068,1.068,0,0,0,.979,1.319c.7.109.914.472.962,1.145a9.239,9.239,0,0,0,3.322,6.515,5.219,5.219,0,0,0,7.854-.643,10.039,10.039,0,0,0,2.4-5.88,1.336,1.336,0,0,1,.555-1,.886.886,0,0,0,.647-.966c0-1-.005-1.994,0-2.991,0-.428-.079-.735-.616-.717-.661.022-.892-.384-.887-.988C2951.6,3042.136,2951.6,3041.516,2951.6,3040.9Z" transform="translate(-2929.575 -3033.958)" fill="#ed1c24"/>
    <path id="Path_866" data-name="Path 866" d="M2981.627,3207.568h-1.214l.129-.161a7.426,7.426,0,0,0-.978-1.05,6.468,6.468,0,0,1-2.2-5.607,3.764,3.764,0,0,1,7.389,1.43,6.012,6.012,0,0,1-2.709,4.469C2981.836,3206.775,2981.795,3207.181,2981.627,3207.568Zm-2.9-5.908a5.5,5.5,0,0,0,1.429,3.216,1.1,1.1,0,0,0,1.813-.05,5.186,5.186,0,0,0,1.366-3.2,2.288,2.288,0,0,0-2.252-2.349A2.354,2.354,0,0,0,2978.732,3201.66Z" transform="translate(-2965.1 -3171.258)" fill="#ed1c24"/>
    <path id="Path_867" data-name="Path 867" d="M3044.094,3197.842a8.417,8.417,0,0,1,7.936,8c.009.55-.122,1-.745,1.032-.653.03-.75-.462-.8-.987a6.771,6.771,0,0,0-5.727-6.475,4.05,4.05,0,0,0-.721-.069c-.555-.01-1.055-.107-1.081-.8C3042.942,3198.05,3043.334,3197.823,3044.094,3197.842Z" transform="translate(-3020.144 -3171.317)" fill="#ed1c24"/>
    <path id="Path_868" data-name="Path 868" d="M2901.993,3205.76a8.406,8.406,0,0,1,7.836-7.932h.081c.533-.016,1.109-.019,1.137.695.027.688-.5.784-1.061.81a6.431,6.431,0,0,0-3.542,1.205,6.66,6.66,0,0,0-2.912,5.165c0,.054-.007.107-.009.161-.021.523-.125,1.027-.781,1C2902.068,3206.832,2901.945,3206.332,2901.993,3205.76Z" transform="translate(-2901.984 -3171.301)" fill="#ed1c24"/>
  </g>
</svg>
