<svg xmlns="http://www.w3.org/2000/svg" width="50.801" height="48.892" viewBox="0 0 50.801 48.892">
  <g id="Group_17528" data-name="Group 17528" transform="translate(-44.734 -755.808)">
    <path id="Path_15375" data-name="Path 15375" d="M-17550.67-10180.436h-36.391l-6.566,26.635h49.523Z" transform="translate(17639 10958)" fill="none" stroke="#ed1c24" stroke-width="1"/>
    <g id="iconfinder_location_3018574_1_" data-name="iconfinder_location_3018574 (1)" transform="translate(47.335 753.642)">
      <path id="Path_15369" data-name="Path 15369" d="M28.248,21.932,21.663,35.385l-8.738-17.63v0a15.644,15.644,0,0,1-1.172-3.833c-.021-.168-.037-.336-.05-.506-.04-.5-.037-.752-.037-.752a9.992,9.992,0,0,1,19.98-.3A39.855,39.855,0,0,1,28.248,21.932Z" transform="translate(0 0)" fill="#fff" stroke="#ed1c24" stroke-width="1"/>
      <circle id="Ellipse_16" data-name="Ellipse 16" cx="3.635" cy="3.635" r="3.635" transform="translate(18.026 9.027)" fill="#fff" stroke="#ed1c24" stroke-width="1"/>
    </g>
    <path id="Path_15376" data-name="Path 15376" d="M-17547.387-10155.989l-45.693-1.915,36.664-7.388-11.492-6.293" transform="translate(17640 10954)" fill="none" stroke="#ed1c24" stroke-width="1"/>
  </g>
</svg>
