<svg xmlns="http://www.w3.org/2000/svg" width="20.868" height="27.729" viewBox="0 0 20.868 27.729">
  <g id="Group_16686" data-name="Group 16686" transform="translate(2969.81 -3867.839)">
    <path id="Path_11715" data-name="Path 11715" d="M-2968.774,3872.343l-1.035-.086v-1.02h5.451c0-.364,0-.653,0-.941a2.246,2.246,0,0,1,2.293-2.429q2.663-.059,5.328,0a2.246,2.246,0,0,1,2.35,2.439c0,.272,0,.544,0,.89h5.446v1.068l-1.013.07c-.054.813-.121,1.6-.158,2.39q-.372,7.773-.734,15.547c-.04.841-.076,1.682-.13,2.521a2.8,2.8,0,0,1-2.893,2.756q-5.5.041-11,0a2.842,2.842,0,0,1-2.915-2.95c-.24-5.228-.51-10.453-.767-15.68-.064-1.3-.123-2.591-.184-3.887C-2968.743,3872.807-2968.759,3872.586-2968.774,3872.343Zm1.133-.017c0,.276-.01.5,0,.719.132,2.567.273,5.132.4,7.7.2,4,.378,8,.571,11.994a1.69,1.69,0,0,0,1.681,1.72q5.6.039,11.2,0a1.685,1.685,0,0,0,1.719-1.682c.106-2.021.187-4.043.288-6.065.156-3.111.325-6.222.48-9.334.084-1.672.153-3.346.23-5.054Zm4.38-1.192h7.776c0-.365.006-.637,0-.909a1.16,1.16,0,0,0-1.2-1.273q-2.69-.036-5.382,0a1.14,1.14,0,0,0-1.188,1.216C-2963.271,3870.484-2963.261,3870.8-2963.261,3871.134Z" transform="translate(0)" fill="#ed1c24"/>
    <path id="Path_11716" data-name="Path 11716" d="M-2951.348,3890.526h1.079c.367,5.843.734,11.687,1.1,17.58h-1.083C-2950.613,3902.267-2950.978,3896.438-2951.348,3890.526Z" transform="translate(-12.992 -15.966)" fill="#ed1c24"/>
    <path id="Path_11717" data-name="Path 11717" d="M-2924.086,3890.5h1.08c-.367,5.872-.732,11.715-1.1,17.6h-1.082C-2924.823,3902.258-2924.457,3896.415-2924.086,3890.5Z" transform="translate(-31.401 -15.95)" fill="#ed1c24"/>
    <path id="Path_11718" data-name="Path 11718" d="M-2935.239,3908.179h-.957v-17.572h.957Z" transform="translate(-23.654 -16.023)" fill="#ed1c24"/>
  </g>
</svg>
