<svg xmlns="http://www.w3.org/2000/svg" width="76.876" height="53.105" viewBox="0 0 76.876 53.105">
  <g id="Group_17842" data-name="Group 17842" transform="translate(-881.985 -175.036)">
    <g id="Group_17841" data-name="Group 17841" transform="translate(407.453 30.168)">
      <g id="Group_16633" data-name="Group 16633" transform="translate(521 149.368)">
        <path id="Path_890" data-name="Path 890" d="M964.691,2974.552l-15.257,15.264-5.977-5.97,15.269-15.263Z" transform="translate(-940.663 -2963.578)" fill="none" stroke="#ed1c24" stroke-width="2"/>
        <path id="Path_891" data-name="Path 891" d="M994.058,2964.709l-6.049-6.052c.267-.257.552-.529.833-.806.613-.6,1.212-1.222,1.838-1.812a2.623,2.623,0,0,1,3.584,0c.969.924,1.93,1.86,2.839,2.842a1.964,1.964,0,0,1-.04,2.831c-.959,1.014-1.969,1.981-2.957,2.968A.161.161,0,0,1,994.058,2964.709Z" transform="translate(-968.387 -2955.332)" fill="none" stroke="#ed1c24" stroke-width="2"/>
        <path id="Path_892" data-name="Path 892" d="M937.323,3011.69l5.008,5c-.274.068-.558.139-.843.208q-2.3.558-4.6,1.117c-.591.144-.932-.184-.8-.776Q936.7,3014.468,937.323,3011.69Z" transform="translate(-935.39 -2989.72)" fill="none" stroke="#ed1c24" stroke-width="2"/>
      </g>
    </g>
    <path id="Path_15463" data-name="Path 15463" d="M36.654,18.877A15.46,15.46,0,0,0,21.277,3.5,15.272,15.272,0,0,0,5.9,18.877,15.272,15.272,0,0,0,21.277,34.254,15.087,15.087,0,0,0,36.654,18.877Zm-28.98,0A13.252,13.252,0,0,1,20.981,5.57c7.393,0,13.941,5.914,13.941,13.307s-6.548,13.6-13.941,13.6A13.32,13.32,0,0,1,7.674,18.877Z" transform="translate(884.599 173.036)" fill="#ed1c24" stroke="#ed1c24" stroke-width="3"/>
    <path id="Path_15464" data-name="Path 15464" d="M44.681,19.844a.636.636,0,0,0-.591-.591A51.141,51.141,0,0,0,25.459,16c-6.8,0-13.6,1.183-18.334,3.253a.636.636,0,0,0-.591.591L3.577,27.828c-.3.591,0,1.183.591,1.183.591.3,1.183,0,1.183-.591l2.661-7.689c9.167-3.549,25.431-3.549,34.6,0l2.661,7.689c.3.3.591.591.887.591h.3c.3,0,.591-.591.591-.887h0v-.3Z" transform="translate(880.038 197.5)" fill="#ed1c24" stroke="#ed1c24" stroke-width="3"/>
  </g>
</svg>
