<svg xmlns="http://www.w3.org/2000/svg" width="422" height="264" viewBox="0 0 422 264">
  <g id="Group_17875" data-name="Group 17875" transform="translate(-491 -315)">
    <g id="iconfinder_1_2739119" transform="translate(642.539 398.485)">
      <path id="Path_15504" data-name="Path 15504" d="M138.692,190.622h0a35.05,35.05,0,0,0,24.928,10.186,35.632,35.632,0,0,0,35.523-35.523V104a6.232,6.232,0,0,0-12.464,0v34.491h-6.232V95.7a6.232,6.232,0,1,0-12.464,0v38.639h-6.232V91.532a6.232,6.232,0,1,0-12.464,0V136.4h-6.232V97.764a6.232,6.232,0,0,0-12.464,0v66.683l-18.7-18.7a6.169,6.169,0,0,0-8.725,8.725Z" transform="translate(-101.3 -85.3)" fill="#707070"/>
    </g>
    <g id="iconfinder_Essentials_deny_error_cancel_5298782" transform="translate(625 373.963)">
      <ellipse id="Ellipse_39" data-name="Ellipse 39" cx="74.5" cy="79" rx="74.5" ry="79" transform="translate(0 0.037)" fill="none" stroke="#ed1c24" stroke-miterlimit="10" stroke-width="9"/>
      <line id="Line_178" data-name="Line 178" x2="106.351" y2="106.351" transform="translate(20.058 24.952)" fill="none" stroke="#ed1c24" stroke-miterlimit="10" stroke-width="9"/>
    </g>
    <text id="_4" data-name="4" transform="translate(491 525)" fill="#707070" font-size="200" font-family="Roboto-Regular, Roboto"><tspan x="0" y="0">4</tspan></text>
    <text id="_3" data-name="3" transform="translate(800 525)" fill="#707070" font-size="200" font-family="Roboto-Regular, Roboto"><tspan x="0" y="0">3</tspan></text>
  </g>
</svg>
