<svg xmlns="http://www.w3.org/2000/svg" width="66.291" height="66.291" viewBox="0 0 66.291 66.291">
  <g id="Expanded" transform="translate(0.5 0.5)">
    <g id="Group_18174" data-name="Group 18174">
      <g id="Group_18170" data-name="Group 18170" transform="translate(23.124)">
        <path id="Path_15553" data-name="Path 15553" d="M26.522,19.043a9.522,9.522,0,1,1,9.522-9.522A9.533,9.533,0,0,1,26.522,19.043Zm0-16.323a6.8,6.8,0,1,0,6.8,6.8A6.809,6.809,0,0,0,26.522,2.72Z" transform="translate(-17)" fill="#ec1c24" stroke="#ed1b23" stroke-width="1"/>
      </g>
      <g id="Group_18171" data-name="Group 18171" transform="translate(19.043 20.403)">
        <path id="Path_15554" data-name="Path 15554" d="M31.683,46.285H23.522a1.36,1.36,0,0,1-1.36-1.36V34.088c-6-3.15-8.161-11.4-8.161-17.728A1.36,1.36,0,0,1,15.36,15H39.844a1.36,1.36,0,0,1,1.36,1.36c0,6.325-2.157,14.577-8.161,17.728V44.925A1.36,1.36,0,0,1,31.683,46.285Zm-6.8-2.72h5.441V33.227a1.362,1.362,0,0,1,.831-1.254c5.259-2.217,7.013-9.459,7.289-14.254H16.761c.276,4.793,2.031,12.037,7.289,14.254a1.363,1.363,0,0,1,.831,1.254Z" transform="translate(-14 -15)" fill="#ec1c24" stroke="#ed1b23" stroke-width="1"/>
      </g>
      <g id="Group_18172" data-name="Group 18172" transform="translate(12.242 47.106)">
        <path id="Path_15555" data-name="Path 15555" d="M29.4,46.015c-7.578,0-20.4-1.289-20.4-6.121,0-2.4,3.118-4.168,9.269-5.244a1.36,1.36,0,0,1,.469,2.68c-5.46.954-6.926,2.289-7.02,2.594.367,1.137,6.767,3.371,17.686,3.371s17.318-2.233,17.686-3.43C47,39.62,45.535,38.291,40.1,37.336a1.36,1.36,0,1,1,.471-2.68c6.128,1.075,9.233,2.837,9.233,5.237C49.807,44.725,36.981,46.015,29.4,46.015Z" transform="translate(-9 -34.631)" fill="#ec1c24" stroke="#ed1b23" stroke-width="1"/>
      </g>
      <g id="Group_18173" data-name="Group 18173" transform="translate(0 41.483)">
        <path id="Path_15556" data-name="Path 15556" d="M32.645,54.3C11.442,54.3,0,48,0,42.063,0,35.6,11.151,31.856,21.588,30.508a1.361,1.361,0,0,1,.348,2.7C9.322,34.836,2.72,38.895,2.72,42.063c0,4.5,12.29,9.522,29.925,9.522S62.57,46.566,62.57,42.063c0-3.168-6.6-7.225-19.209-8.855a1.361,1.361,0,0,1,.348-2.7C54.142,31.857,65.291,35.6,65.291,42.063,65.291,48,53.848,54.3,32.645,54.3Z" transform="translate(0 -30.498)" fill="#ec1c24" stroke="#ed1b23" stroke-width="1"/>
      </g>
    </g>
  </g>
</svg>
