<svg xmlns="http://www.w3.org/2000/svg" width="35.211" height="35.016" viewBox="0 0 35.211 35.016">
  <path id="Path_869" data-name="Path 869" d="M3133,3176.531c.141-1.1.277-2.2.424-3.305a4.887,4.887,0,0,1,3.185-4.084c1.567-.64,3.213-1.082,4.8-1.688a17.792,17.792,0,0,0,2.947-1.4,3.656,3.656,0,0,0,1.79-3.415,1.92,1.92,0,0,0-.329-.864,10.19,10.19,0,0,0-.653-.816,26.526,26.526,0,0,0-2.318-2.843,8.6,8.6,0,0,1-1.5-2.773,1.643,1.643,0,0,1,.09-1.274,4.254,4.254,0,0,0,.38-2.291,11.437,11.437,0,0,1,.967-5.094,4.179,4.179,0,0,1,1.877-1.979,16.959,16.959,0,0,1,6.929-2.177,4.93,4.93,0,0,1,3.292.634,9.694,9.694,0,0,1,1.441,1.638c.149.17.324.41.513.438a2.777,2.777,0,0,1,2.293,1.9,9.179,9.179,0,0,1,.49,3.983c-.036.579-.147,1.154-.179,1.733a1.338,1.338,0,0,0,.157.715,2.474,2.474,0,0,1,.215,2.146,6.2,6.2,0,0,1-2.191,3.156,2.838,2.838,0,0,0-.542.614c-.707.95-1.369,1.935-2.115,2.852-.574.706-.791,1.234-.238,1.984a6.3,6.3,0,0,0,2.012,1.851c1.182.619,2.516.938,3.764,1.439,1.784.718,3.578,1.423,5.313,2.248a3.987,3.987,0,0,1,2.254,3.675c.065,1.324.1,2.648.151,3.973H3133Zm33.977-.257c0-.771-.005-1.465,0-2.158a3.5,3.5,0,0,0-2.137-3.524c-.253-.115-.482-.29-.742-.385q-3.04-1.11-6.09-2.2a8.837,8.837,0,0,1-3.625-2.147,3.652,3.652,0,0,1-1.061-3.057,1.776,1.776,0,0,1,.362-.791c.828-1.116,1.678-2.216,2.526-3.317a2.807,2.807,0,0,1,.585-.658,4.755,4.755,0,0,0,1.978-2.936.915.915,0,0,0-.081-.724c-.672-.707-.383-1.485-.3-2.282a10.147,10.147,0,0,0-.25-4.356,1.654,1.654,0,0,0-1.846-1.367c-.61.03-.807-.222-.92-.75a2.225,2.225,0,0,0-1.881-1.825,7.49,7.49,0,0,0-1.66-.137,15,15,0,0,0-6.544,1.988,3.37,3.37,0,0,0-1.575,1.687,13.505,13.505,0,0,0-.8,5.756,1.5,1.5,0,0,1-.171.843,1.468,1.468,0,0,0-.152,1.7,5.742,5.742,0,0,0,1.194,1.847,10.846,10.846,0,0,1,1.981,2.384c.372.5.8.97,1.18,1.468a1.3,1.3,0,0,1,.293.6,5.021,5.021,0,0,1-2.249,5.069,12.533,12.533,0,0,1-2.478,1.256c-1.542.582-3.136,1.024-4.685,1.591a5.382,5.382,0,0,0-3.494,6.429Z" transform="translate(-3133.001 -3142.494)" fill="#ed1c24"/>
</svg>
