<svg xmlns="http://www.w3.org/2000/svg" width="57.782" height="57.144" viewBox="0 0 57.782 57.144">
  <g id="iconfinder__people_users_people_team_leader_group_community-15_4213440" transform="translate(-0.6 -0.9)">
    <path id="Path_15557" data-name="Path 15557" d="M50.937,42A10.937,10.937,0,1,0,61.873,52.937,10.969,10.969,0,0,0,50.937,42Zm0,18.228a7.291,7.291,0,1,1,7.291-7.291A7.312,7.312,0,0,1,50.937,60.228Z" transform="translate(-21.446 -22.371)" fill="#ed1c24"/>
    <path id="Path_15558" data-name="Path 15558" d="M41.085,100.8a24.621,24.621,0,0,0-17.954,7.792l-1.23,1.322,2.643,2.506,1.23-1.321a20.945,20.945,0,0,1,30.622,0l1.23,1.321,2.643-2.506-1.23-1.322A24.8,24.8,0,0,0,41.085,100.8Z" transform="translate(-11.594 -54.376)" fill="#ed1c24"/>
    <path id="Path_15559" data-name="Path 15559" d="M97,47.9v3.646a15.245,15.245,0,0,1,11.21,4.876l2.643-2.506A18.962,18.962,0,0,0,97,47.9Z" transform="translate(-52.471 -25.583)" fill="#ed1c24"/>
    <path id="Path_15560" data-name="Path 15560" d="M95.307,9.6a8.7,8.7,0,1,0-8.7,8.7A8.732,8.732,0,0,0,95.307,9.6Zm-13.762,0A5.058,5.058,0,1,1,86.6,14.662,5.076,5.076,0,0,1,81.546,9.6Z" transform="translate(-42.075)" fill="#ed1c24"/>
    <path id="Path_15561" data-name="Path 15561" d="M14.453,47.9A18.962,18.962,0,0,0,.6,53.915l2.643,2.506a15.171,15.171,0,0,1,11.21-4.876Z" transform="translate(0 -25.583)" fill="#ed1c24"/>
    <path id="Path_15562" data-name="Path 15562" d="M29.307,9.6a8.7,8.7,0,1,0-8.7,8.7A8.732,8.732,0,0,0,29.307,9.6Zm-8.7,5.058A5.058,5.058,0,1,1,25.662,9.6,5.076,5.076,0,0,1,20.6,14.662Z" transform="translate(-6.151 0)" fill="#ed1c24"/>
  </g>
</svg>
