<svg xmlns="http://www.w3.org/2000/svg" width="46.123" height="41.664" viewBox="0 0 46.123 41.664">
  <g id="Group_17834" data-name="Group 17834" transform="translate(0.998 1)">
    <g id="Group_17384" data-name="Group 17384">
      <g id="Group_17383" data-name="Group 17383">
        <g id="Group_17374" data-name="Group 17374">
          <path id="Path_15347" data-name="Path 15347" d="M2106.066,2647.608h40.614v-.784q0-6.54,0-13.081c0-.212-.073-.476.027-.624a1.763,1.763,0,0,1,.746-.724.718.718,0,0,1,.912.575,2.461,2.461,0,0,1,.066.689q.006,7.2,0,14.415c0,1.109-.226,1.329-1.34,1.329H2105.63c-1.08,0-1.317-.231-1.317-1.287q-.005-7.24,0-14.479a2.514,2.514,0,0,1,.054-.628.86.86,0,0,1,1.686.121,4.345,4.345,0,0,1,.012.571v13.907Z" transform="translate(-2104.311 -2609.739)" fill="#ed1c24" stroke="#ed1c24" stroke-width="2"/>
          <path id="Path_15348" data-name="Path 15348" d="M2129.414,2631.476c1.156-1.166,2.182-2.2,3.209-3.229q1.7-1.711,3.415-3.411c.513-.509.975-.55,1.381-.146.39.387.347.887-.148,1.382q-3.987,4.006-7.987,8a.917.917,0,0,1-1.525-.008q-4-4-7.987-8c-.561-.561-.523-1.212.069-1.532.484-.262.842-.032,1.18.308q3.029,3.034,6.068,6.06c.144.144.3.28.548.516v-.787q0-11.62,0-23.244a4.3,4.3,0,0,1,.012-.633.881.881,0,0,1,1.752.013,4.415,4.415,0,0,1,.013.634v24.079Z" transform="translate(-2106.462 -2605.969)" fill="#ed1c24" stroke="#ed1c24" stroke-width="2"/>
        </g>
      </g>
    </g>
  </g>
</svg>
