<svg xmlns="http://www.w3.org/2000/svg" width="18.613" height="18.919" viewBox="0 0 18.613 18.919"><defs><style>.a{fill:#ec1b24;}</style></defs><path class="a" d="M8.437,7.228a1.387,1.387,0,0,0-.224.306l-.041-.041-.025.173a1.5,1.5,0,0,0-.107.749l-.4,2.784,2.785-.4a1.5,1.5,0,0,0,.749-.107l.173-.024-.041-.041a1.41,1.41,0,0,0,.306-.224l5.031-5.031L13.469,2.2Z" transform="translate(-0.033 -0.009)"/><path class="a" d="M18.166,1.562,17.3.7A1.572,1.572,0,0,0,15.085.6l-.794.794L17.468,4.57l.794-.795A1.568,1.568,0,0,0,18.166,1.562Z" transform="translate(-0.061 -0.001)"/><path class="a" d="M14.936,9.654v7.273H1.991V1.991h8.915L12.423.578a1.361,1.361,0,0,1,.553-.292A1.219,1.219,0,0,1,13.15,0H0V18.919H16.927V7.894Z"/></svg>