<svg xmlns="http://www.w3.org/2000/svg" width="49.293" height="31.967" viewBox="0 0 49.293 31.967">
  <g id="Group_16624" data-name="Group 16624" transform="translate(382.339 -1775.209)">
    <path id="Path_880" data-name="Path 880" d="M-347.588,1817.25v2.141h-1.167q-14.945,0-29.891,0c-2.11,0-3.165-1.012-3.176-3.124q-.033-6.55,0-13.1c.01-1.947,1.046-3.071,2.864-3.073q15.422-.024,30.843,0a4.823,4.823,0,0,1,.512.059v2.076h-1.237q-14.648,0-29.295,0c-1.57,0-1.575.007-1.576,1.582,0,3.969.047,7.94-.023,11.908-.021,1.2.311,1.565,1.529,1.559,9.765-.045,19.53-.025,29.295-.025Z" transform="translate(0 -18.567)" fill="#ed1c24" stroke="#fff" stroke-width="1"/>
    <path id="Path_881" data-name="Path 881" d="M-247.941,1804.616h5.146v2.059h-12.682v-2.023h5.242v-26.865h-5.237v-2.079h12.693v1.969h-5.162Z" transform="translate(-96.251)" fill="#ed1c24" stroke="#fff" stroke-width="1"/>
    <path id="Path_882" data-name="Path 882" d="M-219.45,1817.229c2.094,0,4.147-.047,6.2.02,1.007.033,1.3-.321,1.29-1.3-.042-4.125-.054-8.25.008-12.374.017-1.145-.395-1.422-1.457-1.382-1.976.073-3.958.021-6.028.021v-2.123c2.427,0,4.837-.078,7.238.03a2.545,2.545,0,0,1,2.321,2.723q.06,6.9-.005,13.8a2.566,2.566,0,0,1-2.479,2.7c-2.332.075-4.668.02-7.084.02Z" transform="translate(-123.693 -18.551)" fill="#ed1c24" stroke="#fff" stroke-width="1"/>
  </g>
</svg>
