<svg xmlns="http://www.w3.org/2000/svg" width="46.172" height="35.628" viewBox="0 0 46.172 35.628">
  <g id="Group_17863" data-name="Group 17863" transform="translate(-56 -144)">
    <g id="Group_16619" data-name="Group 16619" transform="translate(52.539 140.5)">
      <path id="Path_11" data-name="Path 11" d="M25.529,13.665a9.465,9.465,0,1,0-18.929,0,9.606,9.606,0,0,0,9.465,9.675A9.607,9.607,0,0,0,25.529,13.665Z" transform="translate(3.463 0.772)" fill="none"/>
      <path id="Path_12" data-name="Path 12" d="M27.774,14.437A11,11,0,0,0,16.837,3.5,10.862,10.862,0,0,0,5.9,14.437,10.862,10.862,0,0,0,16.837,25.374,10.73,10.73,0,0,0,27.774,14.437Zm-20.612,0a9.425,9.425,0,0,1,9.465-9.465c5.258,0,9.916,4.206,9.916,9.465a10,10,0,0,1-9.916,9.675A9.473,9.473,0,0,1,7.162,14.437Z" transform="translate(2.691 0)" fill="#ed1c24"/>
      <path id="Path_13" data-name="Path 13" d="M32.778,18.734a.452.452,0,0,0-.421-.421A36.374,36.374,0,0,0,19.107,16a34.421,34.421,0,0,0-13.04,2.314.452.452,0,0,0-.421.421l-2.1,5.679c-.21.421,0,.841.421.841.421.21.841,0,.841-.421L6.7,19.365c6.52-2.524,18.088-2.524,24.608,0L33.2,24.834c.21.21.421.421.631.421h.21c.21,0,.421-.421.421-.631h0v-.21Z" transform="translate(0 13.791)" fill="#ed1c24"/>
    </g>
    <g id="Group_16666" data-name="Group 16666" transform="translate(86 154.991)">
      <path id="Path_11714" data-name="Path 11714" d="M2229.411,1491.125c-.463-.463-.891-.927-1.355-1.39.392-.535.856-1.141,1.248-1.64-.25-.606-.5-1.176-.713-1.747-.036-.107-.178-.178-.25-.214-.642-.107-1.319-.214-2-.285v-1.925c.642-.107,1.284-.214,1.925-.285a.394.394,0,0,0,.321-.25c.178-.5.356-.962.57-1.426a.427.427,0,0,0-.036-.5c-.392-.5-.784-1.034-1.176-1.533.463-.464.891-.927,1.39-1.39.5.357,1,.749,1.5,1.141a.387.387,0,0,0,.535.036,7.73,7.73,0,0,1,1.248-.535.417.417,0,0,0,.357-.428c.071-.571.178-1.141.214-1.711.035-.214.071-.321.321-.321h1.39c.214,0,.285.071.321.285.071.606.143,1.212.25,1.818.036.107.107.249.214.285.5.214,1.034.392,1.6.642.606-.428,1.248-.927,1.889-1.39.463.464.891.927,1.354,1.39-.392.5-.784,1.07-1.212,1.6a.388.388,0,0,0-.036.535,4.3,4.3,0,0,1,.464,1.105c.071.285.249.321.5.356.678.107,1.355.178,2.067.285v1.925c-.712.107-1.39.214-2.1.285a.343.343,0,0,0-.321.285,12.1,12.1,0,0,1-.463,1.212.433.433,0,0,0,.036.464c.463.57.892,1.14,1.319,1.747-.463.463-.926.891-1.39,1.354-.606-.463-1.248-.927-1.818-1.354-.571.249-1.105.463-1.64.713a.643.643,0,0,0-.178.25c-.106.606-.214,1.248-.285,1.89-.036.214-.106.285-.321.285h-1.39c-.249,0-.285-.071-.321-.321-.072-.571-.143-1.105-.214-1.676a.373.373,0,0,0-.32-.357,11.16,11.16,0,0,1-1.391-.535.319.319,0,0,0-.392.036C2230.48,1490.34,2229.945,1490.733,2229.411,1491.125Zm1.854-6.417a2.923,2.923,0,0,0,5.846.072,2.924,2.924,0,0,0-5.846-.072Z" transform="translate(-2226.345 -1476.723)" fill="none" stroke="#ed1c24" stroke-miterlimit="10" stroke-width="0.4"/>
    </g>
  </g>
</svg>
